<?xml version="1.0" encoding="UTF-8" standalone="no"?>
<!DOCTYPE svg PUBLIC "-//W3C//DTD SVG 1.1//EN"
 "http://www.w3.org/Graphics/SVG/1.1/DTD/svg11.dtd">
<!-- Generated by graphviz version 2.40.1 (20161225.0304)
 -->
<!-- Title: dependencies Pages: 1 -->
<svg width="504pt" height="284pt"
 viewBox="0.00 0.00 504.00 284.00" xmlns="http://www.w3.org/2000/svg" xmlns:xlink="http://www.w3.org/1999/xlink">
<g id="graph0" class="graph" transform="scale(1 1) rotate(0) translate(4 280)">
<title>dependencies</title>
<polygon fill="#ffffff" stroke="transparent" points="-4,4 -4,-280 500,-280 500,4 -4,4"/>
<text text-anchor="start" x="227.0091" y="-42.4" font-family="sans-serif" font-weight="bold" font-size="14.00" fill="#000000">Legend</text>
<polygon fill="#ffffb3" stroke="transparent" points="14,-10 14,-30 34,-30 34,-10 14,-10"/>
<text text-anchor="start" x="37.629" y="-15.4" font-family="sans-serif" font-size="14.00" fill="#000000"> &#160;Declarations</text>
<polygon fill="#8dd3c7" stroke="transparent" points="127,-10 127,-30 147,-30 147,-10 127,-10"/>
<text text-anchor="start" x="150.7251" y="-15.4" font-family="sans-serif" font-size="14.00" fill="#000000"> &#160;Module</text>
<polygon fill="#80b1d3" stroke="transparent" points="213,-10 213,-30 233,-30 233,-10 213,-10"/>
<text text-anchor="start" x="236.7812" y="-15.4" font-family="sans-serif" font-size="14.00" fill="#000000"> &#160;Bootstrap</text>
<polygon fill="#fdb462" stroke="transparent" points="310,-10 310,-30 330,-30 330,-10 310,-10"/>
<text text-anchor="start" x="333.6732" y="-15.4" font-family="sans-serif" font-size="14.00" fill="#000000"> &#160;Providers</text>
<polygon fill="#fb8072" stroke="transparent" points="406,-10 406,-30 426,-30 426,-10 406,-10"/>
<text text-anchor="start" x="429.7258" y="-15.4" font-family="sans-serif" font-size="14.00" fill="#000000"> &#160;Exports</text>
<g id="clust1" class="cluster">
<title>cluster_EmojiAreaModule</title>
<polygon fill="none" stroke="#000000" stroke-dasharray="1,5" points="75,-70 75,-268 421,-268 421,-70 75,-70"/>
</g>
<g id="clust2" class="cluster">
<title>cluster_EmojiAreaModule_declarations</title>
<polygon fill="none" stroke="#000000" points="83,-78 83,-130 413,-130 413,-78 83,-78"/>
</g>
<g id="clust6" class="cluster">
<title>cluster_EmojiAreaModule_exports</title>
<polygon fill="none" stroke="#000000" points="169,-208 169,-260 331,-260 331,-208 169,-208"/>
</g>
<!-- EmojiAreaComponent -->
<g id="node1" class="node">
<title>EmojiAreaComponent</title>
<polygon fill="#ffffb3" stroke="#000000" points="405.2534,-122 262.7466,-122 262.7466,-86 405.2534,-86 405.2534,-122"/>
<text text-anchor="middle" x="334" y="-99.8" font-family="Times,serif" font-size="14.00" fill="#000000">EmojiAreaComponent</text>
</g>
<!-- EmojiAreaModule -->
<g id="node3" class="node">
<title>EmojiAreaModule</title>
<polygon fill="#8dd3c7" stroke="#000000" points="310.4706,-187 307.4706,-191 286.4706,-191 283.4706,-187 189.5294,-187 189.5294,-151 310.4706,-151 310.4706,-187"/>
<text text-anchor="middle" x="250" y="-164.8" font-family="Times,serif" font-size="14.00" fill="#000000">EmojiAreaModule</text>
</g>
<!-- EmojiAreaComponent&#45;&gt;EmojiAreaModule -->
<g id="edge1" class="edge">
<title>EmojiAreaComponent&#45;&gt;EmojiAreaModule</title>
<path fill="none" stroke="#000000" d="M286.5544,-122.1061C286.5544,-122.1061 286.5544,-140.991 286.5544,-140.991"/>
<polygon fill="#000000" stroke="#000000" points="283.0544,-140.9909 286.5544,-150.991 290.0544,-140.991 283.0544,-140.9909"/>
</g>
<!-- EmojiSearchComponent -->
<g id="node2" class="node">
<title>EmojiSearchComponent</title>
<polygon fill="#ffffb3" stroke="#000000" points="244.6442,-122 91.3558,-122 91.3558,-86 244.6442,-86 244.6442,-122"/>
<text text-anchor="middle" x="168" y="-99.8" font-family="Times,serif" font-size="14.00" fill="#000000">EmojiSearchComponent</text>
</g>
<!-- EmojiSearchComponent&#45;&gt;EmojiAreaModule -->
<g id="edge2" class="edge">
<title>EmojiSearchComponent&#45;&gt;EmojiAreaModule</title>
<path fill="none" stroke="#000000" d="M217.1683,-122.1061C217.1683,-122.1061 217.1683,-140.991 217.1683,-140.991"/>
<polygon fill="#000000" stroke="#000000" points="213.6684,-140.9909 217.1683,-150.991 220.6684,-140.991 213.6684,-140.9909"/>
</g>
<!-- EmojiAreaComponent  -->
<g id="node4" class="node">
<title>EmojiAreaComponent </title>
<polygon fill="#fb8072" stroke="#000000" points="323.2534,-252 176.7466,-252 176.7466,-216 323.2534,-216 323.2534,-252"/>
<text text-anchor="middle" x="250" y="-229.8" font-family="Times,serif" font-size="14.00" fill="#000000">EmojiAreaComponent </text>
</g>
<!-- EmojiAreaModule&#45;&gt;EmojiAreaComponent  -->
<g id="edge3" class="edge">
<title>EmojiAreaModule&#45;&gt;EmojiAreaComponent </title>
<path fill="none" stroke="#000000" stroke-dasharray="5,2" d="M250,-187.1061C250,-187.1061 250,-205.991 250,-205.991"/>
<polygon fill="#000000" stroke="#000000" points="246.5001,-205.9909 250,-215.991 253.5001,-205.991 246.5001,-205.9909"/>
</g>
</g>
</svg>
