<?xml version="1.0" encoding="UTF-8" standalone="no"?>
<!DOCTYPE svg PUBLIC "-//W3C//DTD SVG 1.1//EN"
 "http://www.w3.org/Graphics/SVG/1.1/DTD/svg11.dtd">
<!-- Generated by graphviz version 2.40.1 (20161225.0304)
 -->
<!-- Title: dependencies Pages: 1 -->
<svg width="540pt" height="360pt"
 viewBox="0.00 0.00 540.00 360.00" xmlns="http://www.w3.org/2000/svg" xmlns:xlink="http://www.w3.org/1999/xlink">
<g id="graph0" class="graph" transform="scale(1 1) rotate(0) translate(4 356)">
<title>dependencies</title>
<polygon fill="#ffffff" stroke="transparent" points="-4,4 -4,-356 536,-356 536,4 -4,4"/>
<text text-anchor="start" x="245.0091" y="-42.4" font-family="sans-serif" font-weight="bold" font-size="14.00" fill="#000000">Legend</text>
<polygon fill="#ffffb3" stroke="transparent" points="32,-10 32,-30 52,-30 52,-10 32,-10"/>
<text text-anchor="start" x="55.629" y="-15.4" font-family="sans-serif" font-size="14.00" fill="#000000"> &#160;Declarations</text>
<polygon fill="#8dd3c7" stroke="transparent" points="145,-10 145,-30 165,-30 165,-10 145,-10"/>
<text text-anchor="start" x="168.7251" y="-15.4" font-family="sans-serif" font-size="14.00" fill="#000000"> &#160;Module</text>
<polygon fill="#80b1d3" stroke="transparent" points="231,-10 231,-30 251,-30 251,-10 231,-10"/>
<text text-anchor="start" x="254.7812" y="-15.4" font-family="sans-serif" font-size="14.00" fill="#000000"> &#160;Bootstrap</text>
<polygon fill="#fdb462" stroke="transparent" points="328,-10 328,-30 348,-30 348,-10 328,-10"/>
<text text-anchor="start" x="351.6732" y="-15.4" font-family="sans-serif" font-size="14.00" fill="#000000"> &#160;Providers</text>
<polygon fill="#fb8072" stroke="transparent" points="424,-10 424,-30 444,-30 444,-10 424,-10"/>
<text text-anchor="start" x="447.7258" y="-15.4" font-family="sans-serif" font-size="14.00" fill="#000000"> &#160;Exports</text>
<g id="clust1" class="cluster">
<title>cluster_AppModule</title>
<polygon fill="none" stroke="#000000" stroke-dasharray="1,5" points="195,-146 195,-344 477,-344 477,-146 195,-146"/>
</g>
<g id="clust2" class="cluster">
<title>cluster_AppModule_declarations</title>
<polygon fill="none" stroke="#000000" points="347,-154 347,-206 469,-206 469,-154 347,-154"/>
</g>
<g id="clust4" class="cluster">
<title>cluster_AppModule_imports</title>
<polygon fill="none" stroke="#000000" points="203,-154 203,-206 339,-206 339,-154 203,-154"/>
</g>
<g id="clust6" class="cluster">
<title>cluster_AppModule_bootstrap</title>
<polygon fill="none" stroke="#000000" points="277,-284 277,-336 401,-336 401,-284 277,-284"/>
</g>
<g id="clust8" class="cluster">
<title>cluster_EmojiAreaModule</title>
<polygon fill="none" stroke="#000000" stroke-dasharray="1,5" points="8,-70 8,-138 524,-138 524,-70 8,-70"/>
</g>
<g id="clust9" class="cluster">
<title>cluster_EmojiAreaModule_declarations</title>
<polygon fill="none" stroke="#000000" points="186,-78 186,-130 516,-130 516,-78 186,-78"/>
</g>
<g id="clust13" class="cluster">
<title>cluster_EmojiAreaModule_exports</title>
<polygon fill="none" stroke="#000000" points="16,-78 16,-130 178,-130 178,-78 16,-78"/>
</g>
<!-- AppComponent -->
<g id="node1" class="node">
<title>AppComponent</title>
<polygon fill="#ffffb3" stroke="#000000" points="460.9399,-198 355.0601,-198 355.0601,-162 460.9399,-162 460.9399,-198"/>
<text text-anchor="middle" x="408" y="-175.8" font-family="Times,serif" font-size="14.00" fill="#000000">AppComponent</text>
</g>
<!-- AppModule -->
<g id="node2" class="node">
<title>AppModule</title>
<polygon fill="#8dd3c7" stroke="#000000" points="380.6571,-263 377.6571,-267 356.6571,-267 353.6571,-263 297.3429,-263 297.3429,-227 380.6571,-227 380.6571,-263"/>
<text text-anchor="middle" x="339" y="-240.8" font-family="Times,serif" font-size="14.00" fill="#000000">AppModule</text>
</g>
<!-- AppComponent&#45;&gt;AppModule -->
<g id="edge1" class="edge">
<title>AppComponent&#45;&gt;AppModule</title>
<path fill="none" stroke="#000000" d="M368.0544,-198.1061C368.0544,-198.1061 368.0544,-216.991 368.0544,-216.991"/>
<polygon fill="#000000" stroke="#000000" points="364.5544,-216.9909 368.0544,-226.991 371.5544,-216.991 364.5544,-216.9909"/>
</g>
<!-- AppComponent  -->
<g id="node4" class="node">
<title>AppComponent </title>
<polygon fill="#80b1d3" stroke="#000000" points="393.439,-328 284.561,-328 284.561,-292 393.439,-292 393.439,-328"/>
<text text-anchor="middle" x="339" y="-305.8" font-family="Times,serif" font-size="14.00" fill="#000000">AppComponent </text>
</g>
<!-- AppModule&#45;&gt;AppComponent  -->
<g id="edge3" class="edge">
<title>AppModule&#45;&gt;AppComponent </title>
<path fill="none" stroke="#000000" stroke-dasharray="1,5" d="M339,-263.1061C339,-263.1061 339,-281.991 339,-281.991"/>
<polygon fill="#000000" stroke="#000000" points="335.5001,-281.9909 339,-291.991 342.5001,-281.991 335.5001,-281.9909"/>
</g>
<!-- EmojiAreaModule -->
<g id="node3" class="node">
<title>EmojiAreaModule</title>
<polygon fill="#8dd3c7" stroke="#000000" points="331.4706,-198 328.4706,-202 307.4706,-202 304.4706,-198 210.5294,-198 210.5294,-162 331.4706,-162 331.4706,-198"/>
<text text-anchor="middle" x="271" y="-175.8" font-family="Times,serif" font-size="14.00" fill="#000000">EmojiAreaModule</text>
</g>
<!-- EmojiAreaModule&#45;&gt;AppModule -->
<g id="edge2" class="edge">
<title>EmojiAreaModule&#45;&gt;AppModule</title>
<path fill="none" stroke="#000000" d="M314.3286,-198.1061C314.3286,-198.1061 314.3286,-216.991 314.3286,-216.991"/>
<polygon fill="#000000" stroke="#000000" points="310.8286,-216.9909 314.3286,-226.991 317.8286,-216.991 310.8286,-216.9909"/>
</g>
<!-- EmojiAreaComponent  -->
<g id="node7" class="node">
<title>EmojiAreaComponent </title>
<polygon fill="#fb8072" stroke="#000000" points="170.2534,-122 23.7466,-122 23.7466,-86 170.2534,-86 170.2534,-122"/>
<text text-anchor="middle" x="97" y="-99.8" font-family="Times,serif" font-size="14.00" fill="#000000">EmojiAreaComponent </text>
</g>
<!-- EmojiAreaModule&#45;&gt;EmojiAreaComponent  -->
<g id="edge6" class="edge">
<title>EmojiAreaModule&#45;&gt;EmojiAreaComponent </title>
<path fill="none" stroke="#000000" stroke-dasharray="5,2" d="M210.1432,-180C159.9667,-180 97,-180 97,-180 97,-180 97,-132.0109 97,-132.0109"/>
<polygon fill="#000000" stroke="#000000" points="100.5001,-132.0109 97,-122.0109 93.5001,-132.011 100.5001,-132.0109"/>
</g>
<!-- EmojiAreaComponent -->
<g id="node5" class="node">
<title>EmojiAreaComponent</title>
<polygon fill="#ffffb3" stroke="#000000" points="508.2534,-122 365.7466,-122 365.7466,-86 508.2534,-86 508.2534,-122"/>
<text text-anchor="middle" x="437" y="-99.8" font-family="Times,serif" font-size="14.00" fill="#000000">EmojiAreaComponent</text>
</g>
<!-- EmojiAreaComponent&#45;&gt;EmojiAreaModule -->
<g id="edge4" class="edge">
<title>EmojiAreaComponent&#45;&gt;EmojiAreaModule</title>
<path fill="none" stroke="#000000" d="M365.6613,-104C357.2307,-104 351.5512,-104 351.5512,-104 351.5512,-104 351.5512,-180 351.5512,-180 351.5512,-180 341.6397,-180 341.6397,-180"/>
<polygon fill="#000000" stroke="#000000" points="341.6397,-176.5001 331.6397,-180 341.6396,-183.5001 341.6397,-176.5001"/>
</g>
<!-- EmojiSearchComponent -->
<g id="node6" class="node">
<title>EmojiSearchComponent</title>
<polygon fill="#ffffb3" stroke="#000000" points="347.6442,-122 194.3558,-122 194.3558,-86 347.6442,-86 347.6442,-122"/>
<text text-anchor="middle" x="271" y="-99.8" font-family="Times,serif" font-size="14.00" fill="#000000">EmojiSearchComponent</text>
</g>
<!-- EmojiSearchComponent&#45;&gt;EmojiAreaModule -->
<g id="edge5" class="edge">
<title>EmojiSearchComponent&#45;&gt;EmojiAreaModule</title>
<path fill="none" stroke="#000000" d="M271,-122.0109C271,-122.0109 271,-151.855 271,-151.855"/>
<polygon fill="#000000" stroke="#000000" points="267.5001,-151.8549 271,-161.855 274.5001,-151.855 267.5001,-151.8549"/>
</g>
</g>
</svg>
